<svg xmlns="http://www.w3.org/2000/svg" xmlns:xlink="http://www.w3.org/1999/xlink" width="500" zoomAndPan="magnify" viewBox="0 0 375 374.999991" height="500" preserveAspectRatio="xMidYMid meet" version="1.0"><defs><g/></defs><g fill="#f7ede2" fill-opacity="1"><g transform="translate(2.723649, 204.277283)"><g><path d="M 13.933594 -5.289062 C 15.261719 -5.289062 16.335938 -5.65625 17.164062 -6.382812 C 17.992188 -7.113281 18.421875 -8.082031 18.457031 -9.289062 L 25.1875 -9.289062 C 25.171875 -7.46875 24.675781 -5.800781 23.695312 -4.285156 C 22.71875 -2.769531 21.382812 -1.59375 19.683594 -0.757812 C 17.988281 0.078125 16.113281 0.496094 14.058594 0.496094 C 10.21875 0.496094 7.1875 -0.722656 4.96875 -3.167969 C 2.75 -5.609375 1.640625 -8.984375 1.640625 -13.289062 L 1.640625 -13.761719 C 1.640625 -17.902344 2.742188 -21.203125 4.941406 -23.671875 C 7.144531 -26.140625 10.167969 -27.375 14.007812 -27.375 C 17.371094 -27.375 20.066406 -26.417969 22.09375 -24.503906 C 24.125 -22.589844 25.15625 -20.046875 25.1875 -16.867188 L 18.457031 -16.867188 C 18.421875 -18.257812 17.992188 -19.386719 17.164062 -20.257812 C 16.335938 -21.125 15.242188 -21.5625 13.886719 -21.5625 C 12.214844 -21.5625 10.949219 -20.953125 10.097656 -19.734375 C 9.246094 -18.519531 8.816406 -16.542969 8.816406 -13.8125 L 8.816406 -13.066406 C 8.816406 -10.300781 9.242188 -8.3125 10.085938 -7.105469 C 10.929688 -5.894531 12.214844 -5.289062 13.933594 -5.289062 Z M 13.933594 -5.289062 "/></g></g></g><g fill="#f7ede2" fill-opacity="1"><g transform="translate(30.314454, 204.277283)"><g><path d="M 1.640625 -13.6875 C 1.640625 -16.351562 2.152344 -18.730469 3.179688 -20.816406 C 4.207031 -22.902344 5.683594 -24.515625 7.613281 -25.660156 C 9.542969 -26.800781 11.78125 -27.375 14.332031 -27.375 C 17.960938 -27.375 20.917969 -26.265625 23.210938 -24.046875 C 25.507812 -21.824219 26.785156 -18.8125 27.050781 -15.003906 L 27.101562 -13.164062 C 27.101562 -9.042969 25.949219 -5.734375 23.648438 -3.242188 C 21.34375 -0.75 18.257812 0.496094 14.382812 0.496094 C 10.507812 0.496094 7.414062 -0.746094 5.105469 -3.230469 C 2.792969 -5.714844 1.640625 -9.089844 1.640625 -13.363281 Z M 8.816406 -13.164062 C 8.816406 -10.613281 9.296875 -8.664062 10.257812 -7.316406 C 11.21875 -5.964844 12.59375 -5.289062 14.382812 -5.289062 C 16.121094 -5.289062 17.480469 -5.957031 18.457031 -7.289062 C 19.433594 -8.625 19.921875 -10.753906 19.921875 -13.6875 C 19.921875 -16.1875 19.433594 -18.125 18.457031 -19.5 C 17.480469 -20.875 16.105469 -21.5625 14.332031 -21.5625 C 12.578125 -21.5625 11.21875 -20.878906 10.257812 -19.511719 C 9.296875 -18.144531 8.816406 -16.03125 8.816406 -13.164062 Z M 8.816406 -13.164062 "/></g></g></g><g fill="#f7ede2" fill-opacity="1"><g transform="translate(60.140295, 204.277283)"><g><path d="M 1.640625 -13.636719 C 1.640625 -17.828125 2.578125 -21.164062 4.457031 -23.648438 C 6.339844 -26.132812 8.910156 -27.375 12.171875 -27.375 C 14.789062 -27.375 16.949219 -26.394531 18.65625 -24.441406 L 18.65625 -38.152344 L 25.859375 -38.152344 L 25.859375 0 L 19.375 0 L 19.027344 -2.855469 C 17.238281 -0.621094 14.9375 0.496094 12.121094 0.496094 C 8.957031 0.496094 6.421875 -0.75 4.507812 -3.242188 C 2.597656 -5.734375 1.640625 -9.199219 1.640625 -13.636719 Z M 8.816406 -13.117188 C 8.816406 -10.597656 9.257812 -8.667969 10.132812 -7.328125 C 11.011719 -5.988281 12.289062 -5.316406 13.960938 -5.316406 C 16.179688 -5.316406 17.742188 -6.25 18.65625 -8.121094 L 18.65625 -18.730469 C 17.761719 -20.601562 16.210938 -21.535156 14.007812 -21.535156 C 10.546875 -21.535156 8.816406 -18.730469 8.816406 -13.117188 Z M 8.816406 -13.117188 "/></g></g></g><g fill="#f7ede2" fill-opacity="1"><g transform="translate(89.866801, 204.277283)"><g><path d="M 15.128906 0.496094 C 11.1875 0.496094 7.976562 -0.710938 5.503906 -3.128906 C 3.027344 -5.546875 1.789062 -8.769531 1.789062 -12.792969 L 1.789062 -13.488281 C 1.789062 -16.1875 2.308594 -18.601562 3.351562 -20.730469 C 4.398438 -22.855469 5.875 -24.496094 7.789062 -25.648438 C 9.699219 -26.796875 11.882812 -27.375 14.332031 -27.375 C 18.007812 -27.375 20.902344 -26.214844 23.015625 -23.894531 C 25.125 -21.578125 26.179688 -18.289062 26.179688 -14.035156 L 26.179688 -11.101562 L 9.066406 -11.101562 C 9.296875 -9.347656 9.996094 -7.941406 11.164062 -6.878906 C 12.332031 -5.820312 13.8125 -5.289062 15.597656 -5.289062 C 18.363281 -5.289062 20.527344 -6.292969 22.082031 -8.296875 L 25.609375 -4.347656 C 24.535156 -2.824219 23.074219 -1.636719 21.238281 -0.78125 C 19.398438 0.0703125 17.363281 0.496094 15.128906 0.496094 Z M 14.308594 -21.5625 C 12.882812 -21.5625 11.730469 -21.082031 10.84375 -20.121094 C 9.957031 -19.160156 9.390625 -17.785156 9.140625 -15.996094 L 19.125 -15.996094 L 19.125 -16.566406 C 19.09375 -18.15625 18.664062 -19.386719 17.835938 -20.257812 C 17.007812 -21.125 15.832031 -21.5625 14.308594 -21.5625 Z M 14.308594 -21.5625 "/></g></g></g><g fill="#f7ede2" fill-opacity="1"><g transform="translate(118.719664, 204.044026)"><g><path d="M 9.363281 -26.875 L 9.585938 -23.769531 C 11.507812 -26.171875 14.082031 -27.371094 17.3125 -27.371094 C 20.160156 -27.371094 22.28125 -26.535156 23.671875 -24.863281 C 25.0625 -23.191406 25.773438 -20.691406 25.808594 -17.363281 L 25.808594 0 L 18.628906 0 L 18.628906 -17.1875 C 18.628906 -18.710938 18.296875 -19.816406 17.636719 -20.503906 C 16.972656 -21.191406 15.871094 -21.535156 14.332031 -21.535156 C 12.3125 -21.535156 10.796875 -20.671875 9.785156 -18.953125 L 9.785156 0 L 2.609375 0 L 2.609375 -26.875 Z M 9.363281 -26.875 "/></g></g></g><g fill="#f7ede2" fill-opacity="1"><g transform="translate(147.206342, 204.044026)"><g><path d="M 18.332031 0 C 18 -0.644531 17.757812 -1.449219 17.609375 -2.410156 C 15.871094 -0.472656 13.609375 0.496094 10.828125 0.496094 C 8.195312 0.496094 6.015625 -0.265625 4.285156 -1.789062 C 2.554688 -3.3125 1.6875 -5.234375 1.6875 -7.550781 C 1.6875 -10.398438 2.746094 -12.585938 4.855469 -14.109375 C 6.96875 -15.632812 10.019531 -16.402344 14.007812 -16.417969 L 17.3125 -16.417969 L 17.3125 -17.957031 C 17.3125 -19.199219 16.992188 -20.191406 16.355469 -20.9375 C 15.71875 -21.683594 14.710938 -22.054688 13.339844 -22.054688 C 12.128906 -22.054688 11.179688 -21.765625 10.492188 -21.1875 C 9.808594 -20.605469 9.464844 -19.8125 9.464844 -18.800781 L 2.285156 -18.800781 C 2.285156 -20.359375 2.765625 -21.800781 3.726562 -23.125 C 4.6875 -24.449219 6.042969 -25.488281 7.800781 -26.242188 C 9.554688 -26.996094 11.523438 -27.371094 13.710938 -27.371094 C 17.023438 -27.371094 19.652344 -26.539062 21.597656 -24.875 C 23.542969 -23.210938 24.515625 -20.871094 24.515625 -17.859375 L 24.515625 -6.210938 C 24.53125 -3.660156 24.886719 -1.730469 25.582031 -0.421875 L 25.582031 0 Z M 12.394531 -4.992188 C 13.453125 -4.992188 14.429688 -5.226562 15.324219 -5.699219 C 16.21875 -6.171875 16.882812 -6.804688 17.3125 -7.601562 L 17.3125 -12.21875 L 14.628906 -12.21875 C 11.035156 -12.21875 9.125 -10.976562 8.890625 -8.496094 L 8.867188 -8.074219 C 8.867188 -7.179688 9.183594 -6.441406 9.8125 -5.863281 C 10.441406 -5.28125 11.300781 -4.992188 12.394531 -4.992188 Z M 12.394531 -4.992188 "/></g></g></g><g fill="#f7ede2" fill-opacity="1"><g transform="translate(174.476047, 204.044026)"><g><path d="M 9.488281 -26.875 L 9.710938 -23.871094 C 11.617188 -26.203125 14.191406 -27.371094 17.4375 -27.371094 C 20.898438 -27.371094 23.273438 -26.003906 24.566406 -23.273438 C 26.453125 -26.003906 29.144531 -27.371094 32.636719 -27.371094 C 35.550781 -27.371094 37.71875 -26.523438 39.144531 -24.824219 C 40.570312 -23.128906 41.28125 -20.574219 41.28125 -17.164062 L 41.28125 0 L 34.078125 0 L 34.078125 -17.136719 C 34.078125 -18.660156 33.78125 -19.773438 33.183594 -20.480469 C 32.585938 -21.183594 31.535156 -21.535156 30.027344 -21.535156 C 27.875 -21.535156 26.386719 -20.507812 25.558594 -18.453125 L 25.582031 0 L 18.40625 0 L 18.40625 -17.113281 C 18.40625 -18.667969 18.097656 -19.796875 17.484375 -20.492188 C 16.875 -21.1875 15.828125 -21.535156 14.355469 -21.535156 C 12.320312 -21.535156 10.847656 -20.691406 9.933594 -19 L 9.933594 0 L 2.757812 0 L 2.757812 -26.875 Z M 9.488281 -26.875 "/></g></g></g><g fill="#f7ede2" fill-opacity="1"><g transform="translate(218.509935, 204.044026)"><g><path d="M 15.125 0.496094 C 11.183594 0.496094 7.976562 -0.710938 5.5 -3.128906 C 3.027344 -5.546875 1.789062 -8.769531 1.789062 -12.792969 L 1.789062 -13.488281 C 1.789062 -16.1875 2.308594 -18.597656 3.351562 -20.726562 C 4.394531 -22.855469 5.875 -24.496094 7.785156 -25.644531 C 9.699219 -26.796875 11.878906 -27.371094 14.332031 -27.371094 C 18.007812 -27.371094 20.902344 -26.210938 23.011719 -23.894531 C 25.125 -21.574219 26.179688 -18.289062 26.179688 -14.035156 L 26.179688 -11.101562 L 9.066406 -11.101562 C 9.296875 -9.347656 9.996094 -7.941406 11.164062 -6.878906 C 12.332031 -5.820312 13.808594 -5.289062 15.597656 -5.289062 C 18.363281 -5.289062 20.523438 -6.292969 22.082031 -8.296875 L 25.609375 -4.347656 C 24.53125 -2.824219 23.074219 -1.636719 21.238281 -0.78125 C 19.398438 0.0703125 17.363281 0.496094 15.125 0.496094 Z M 14.308594 -21.558594 C 12.882812 -21.558594 11.726562 -21.078125 10.839844 -20.117188 C 9.957031 -19.160156 9.390625 -17.785156 9.140625 -15.996094 L 19.125 -15.996094 L 19.125 -16.566406 C 19.09375 -18.15625 18.660156 -19.386719 17.832031 -20.253906 C 17.003906 -21.125 15.828125 -21.558594 14.308594 -21.558594 Z M 14.308594 -21.558594 "/></g></g></g><g fill="#84a59d" fill-opacity="1"><g transform="translate(246.009363, 204.374987)"><g><path d="M 9.765625 -23.957031 C 11.671875 -26.242188 14.066406 -27.386719 16.949219 -27.386719 C 22.78125 -27.386719 25.738281 -23.996094 25.820312 -17.222656 L 25.820312 0 L 18.636719 0 L 18.636719 -17.023438 C 18.636719 -18.5625 18.308594 -19.703125 17.644531 -20.441406 C 16.980469 -21.175781 15.878906 -21.546875 14.339844 -21.546875 C 12.234375 -21.546875 10.710938 -20.734375 9.765625 -19.109375 L 9.765625 0 L 2.585938 0 L 2.585938 -38.171875 L 9.765625 -38.171875 Z M 9.765625 -23.957031 "/></g></g></g><g fill="#84a59d" fill-opacity="1"><g transform="translate(274.48843, 204.374987)"><g><path d="M 18.339844 0 C 18.007812 -0.644531 17.769531 -1.449219 17.621094 -2.410156 C 15.878906 -0.472656 13.617188 0.496094 10.835938 0.496094 C 8.199219 0.496094 6.019531 -0.265625 4.285156 -1.789062 C 2.554688 -3.3125 1.691406 -5.234375 1.691406 -7.554688 C 1.691406 -10.40625 2.746094 -12.589844 4.859375 -14.117188 C 6.972656 -15.640625 10.023438 -16.410156 14.015625 -16.425781 L 17.320312 -16.425781 L 17.320312 -17.96875 C 17.320312 -19.210938 17.003906 -20.203125 16.363281 -20.949219 C 15.726562 -21.695312 14.71875 -22.066406 13.34375 -22.066406 C 12.136719 -22.066406 11.1875 -21.777344 10.5 -21.199219 C 9.8125 -20.617188 9.46875 -19.824219 9.46875 -18.8125 L 2.285156 -18.8125 C 2.285156 -20.371094 2.765625 -21.8125 3.726562 -23.136719 C 4.6875 -24.460938 6.046875 -25.5 7.804688 -26.253906 C 9.558594 -27.007812 11.53125 -27.386719 13.71875 -27.386719 C 17.03125 -27.386719 19.660156 -26.554688 21.609375 -24.886719 C 23.554688 -23.222656 24.527344 -20.882812 24.527344 -17.867188 L 24.527344 -6.210938 C 24.542969 -3.660156 24.902344 -1.730469 25.597656 -0.421875 L 25.597656 0 Z M 12.402344 -4.996094 C 13.460938 -4.996094 14.4375 -5.230469 15.332031 -5.703125 C 16.226562 -6.175781 16.890625 -6.808594 17.320312 -7.605469 L 17.320312 -12.226562 L 14.636719 -12.226562 C 11.042969 -12.226562 9.128906 -10.984375 8.898438 -8.5 L 8.871094 -8.078125 C 8.871094 -7.183594 9.1875 -6.445312 9.816406 -5.863281 C 10.445312 -5.285156 11.308594 -4.996094 12.402344 -4.996094 Z M 12.402344 -4.996094 "/></g></g></g><g fill="#84a59d" fill-opacity="1"><g transform="translate(301.774657, 204.374987)"><g><path d="M 17.867188 -20.152344 C 16.890625 -20.285156 16.027344 -20.351562 15.285156 -20.351562 C 12.566406 -20.351562 10.785156 -19.433594 9.941406 -17.59375 L 9.941406 0 L 2.757812 0 L 2.757812 -26.890625 L 9.542969 -26.890625 L 9.742188 -23.683594 C 11.183594 -26.152344 13.179688 -27.386719 15.730469 -27.386719 C 16.527344 -27.386719 17.273438 -27.277344 17.96875 -27.0625 Z M 17.867188 -20.152344 "/></g></g></g><g fill="#84a59d" fill-opacity="1"><g transform="translate(320.338243, 204.374987)"><g><path d="M 17.320312 -7.429688 C 17.320312 -8.308594 16.886719 -9 16.015625 -9.503906 C 15.148438 -10.011719 13.75 -10.460938 11.828125 -10.859375 C 5.433594 -12.203125 2.238281 -14.917969 2.238281 -19.011719 C 2.238281 -21.398438 3.226562 -23.390625 5.207031 -24.988281 C 7.1875 -26.585938 9.773438 -27.386719 12.972656 -27.386719 C 16.386719 -27.386719 19.113281 -26.582031 21.160156 -24.976562 C 23.207031 -23.367188 24.230469 -21.28125 24.230469 -18.710938 L 17.046875 -18.710938 C 17.046875 -19.738281 16.714844 -20.589844 16.054688 -21.261719 C 15.390625 -21.929688 14.355469 -22.265625 12.949219 -22.265625 C 11.738281 -22.265625 10.800781 -21.992188 10.140625 -21.445312 C 9.476562 -20.898438 9.144531 -20.203125 9.144531 -19.359375 C 9.144531 -18.5625 9.523438 -17.921875 10.277344 -17.433594 C 11.03125 -16.945312 12.300781 -16.523438 14.089844 -16.164062 C 15.878906 -15.808594 17.386719 -15.40625 18.613281 -14.960938 C 22.40625 -13.570312 24.304688 -11.15625 24.304688 -7.730469 C 24.304688 -5.277344 23.253906 -3.292969 21.148438 -1.777344 C 19.042969 -0.261719 16.328125 0.496094 12.996094 0.496094 C 10.742188 0.496094 8.742188 0.09375 6.996094 -0.707031 C 5.246094 -1.511719 3.875 -2.613281 2.882812 -4.011719 C 1.890625 -5.414062 1.390625 -6.925781 1.390625 -8.546875 L 8.199219 -8.546875 C 8.265625 -7.273438 8.738281 -6.296875 9.617188 -5.617188 C 10.496094 -4.9375 11.671875 -4.597656 13.144531 -4.597656 C 14.519531 -4.597656 15.5625 -4.859375 16.265625 -5.378906 C 16.96875 -5.902344 17.320312 -6.585938 17.320312 -7.429688 Z M 17.320312 -7.429688 "/></g></g></g><g fill="#84a59d" fill-opacity="1"><g transform="translate(346.506187, 204.374987)"><g><path d="M 9.765625 -23.957031 C 11.671875 -26.242188 14.066406 -27.386719 16.949219 -27.386719 C 22.78125 -27.386719 25.738281 -23.996094 25.820312 -17.222656 L 25.820312 0 L 18.636719 0 L 18.636719 -17.023438 C 18.636719 -18.5625 18.308594 -19.703125 17.644531 -20.441406 C 16.980469 -21.175781 15.878906 -21.546875 14.339844 -21.546875 C 12.234375 -21.546875 10.710938 -20.734375 9.765625 -19.109375 L 9.765625 0 L 2.585938 0 L 2.585938 -38.171875 L 9.765625 -38.171875 Z M 9.765625 -23.957031 "/></g></g></g></svg>