<svg xmlns="http://www.w3.org/2000/svg" xmlns:xlink="http://www.w3.org/1999/xlink" width="500" zoomAndPan="magnify" viewBox="0 0 375 374.999991" height="500" preserveAspectRatio="xMidYMid meet" version="1.0"><defs><g/></defs><g fill="#f7ede2" fill-opacity="1"><g transform="translate(15.746653, 176.732039)"><g><path d="M 34.894531 -97.328125 L 59.894531 -26.738281 L 84.761719 -97.328125 L 111.101562 -97.328125 L 111.101562 0 L 90.980469 0 L 90.980469 -26.605469 L 92.984375 -72.53125 L 66.714844 0 L 52.941406 0 L 26.738281 -72.460938 L 28.746094 -26.605469 L 28.746094 0 L 8.691406 0 L 8.691406 -97.328125 Z M 34.894531 -97.328125 "/></g></g></g><g fill="#f7ede2" fill-opacity="1"><g transform="translate(152.079823, 176.732039)"><g><path d="M 67.25 -42.179688 L 28.746094 -42.179688 L 28.746094 -16.109375 L 73.933594 -16.109375 L 73.933594 0 L 8.691406 0 L 8.691406 -97.328125 L 73.800781 -97.328125 L 73.800781 -81.085938 L 28.746094 -81.085938 L 28.746094 -57.890625 L 67.25 -57.890625 Z M 67.25 -42.179688 "/></g></g></g><g fill="#f7ede2" fill-opacity="1"><g transform="translate(154.239367, 301.905862)"><g><path d="M 87.835938 0 L 67.785156 0 L 28.746094 -64.039062 L 28.746094 0 L 8.691406 0 L 8.691406 -97.328125 L 28.746094 -97.328125 L 67.851562 -33.15625 L 67.851562 -97.328125 L 87.835938 -97.328125 Z M 87.835938 0 "/></g></g></g><g fill="#f7ede2" fill-opacity="1"><g transform="translate(269.135027, 301.905862)"><g><path d="M 82.355469 -97.328125 L 82.355469 -33.222656 C 82.355469 -22.570312 79.023438 -14.148438 72.363281 -7.953125 C 65.699219 -1.761719 56.597656 1.335938 45.054688 1.335938 C 33.691406 1.335938 24.667969 -1.671875 17.980469 -7.6875 C 11.296875 -13.703125 7.886719 -21.96875 7.753906 -32.488281 L 7.753906 -97.328125 L 27.808594 -97.328125 L 27.808594 -33.089844 C 27.808594 -26.714844 29.335938 -22.070312 32.386719 -19.152344 C 35.441406 -16.234375 39.664062 -14.773438 45.054688 -14.773438 C 56.332031 -14.773438 62.058594 -20.699219 62.234375 -32.554688 L 62.234375 -97.328125 Z M 82.355469 -97.328125 "/></g></g></g><path stroke-linecap="round" transform="matrix(0.749872, 0.000000000000000039, -0.000000000000000039, 0.749872, 22.79221, 36.99734)" fill="none" stroke-linejoin="miter" d="M 17.998872 18.001407 L 257.060465 18.001407 " stroke="#84a59d" stroke-width="36" stroke-opacity="1" stroke-miterlimit="4"/><path stroke-linecap="round" transform="matrix(0.74929, -0.000000000000000279, 0.000000000000000279, 0.74929, 161.060195, 320.249979)" fill="none" stroke-linejoin="miter" d="M 17.99927 18.001434 L 246.256894 18.001434 " stroke="#84a59d" stroke-width="36" stroke-opacity="1" stroke-miterlimit="4"/></svg>